<?xml version='1.0' encoding='UTF-8'?>
<!-- Created with Inkscape (http://www.inkscape.org/) -->
<svg xmlns:inkscape="http://www.inkscape.org/namespaces/inkscape" xmlns:sodipodi="http://sodipodi.sourceforge.net/DTD/sodipodi-0.dtd" xmlns:xlink="http://www.w3.org/1999/xlink" xmlns="http://www.w3.org/2000/svg" xmlns:svg="http://www.w3.org/2000/svg" width="200" height="200" viewBox="0 0 200 200" version="1.1" id="svg1" inkscape:version="1.4.4 (dcaf3e7d9e, 2026-05-05)" sodipodi:docname="_head.svg" xml:space="preserve">
  <sodipodi:namedview id="namedview1" pagecolor="#505050" bordercolor="#ffffff" borderopacity="1" inkscape:showpageshadow="0" inkscape:pageopacity="0" inkscape:pagecheckerboard="1" inkscape:deskcolor="#505050" inkscape:document-units="mm" inkscape:zoom="2.0000001" inkscape:cx="-12" inkscape:cy="122.25" inkscape:window-width="1896" inkscape:window-height="1012" inkscape:window-x="0" inkscape:window-y="0" inkscape:window-maximized="1" inkscape:current-layer="layer2" showgrid="false"/>
  <defs id="defs1">
    <linearGradient id="swatch59" inkscape:swatch="solid">
      <stop style="stop-color:#e0aea2;stop-opacity:1;" offset="0" id="stop59"/>
    </linearGradient>
    <inkscape:path-effect effect="skeletal" id="path-effect59" is_visible="true" lpeversion="1" pattern="M 1.8205553,12.93898 C -2.13237,10.00867 1.475788,7.43356 8.5705553,3.31398 14.993188,-0.41533 31.822593,0.83784 31.570555,1.75148 l -8,9.1875 c -9.567544,-2.76493 -14.4999997,1.33333 -21.7499997,2 z" copytype="repeated_stretched" prop_scale="-0.7004642" scale_y_rel="false" spacing="-3" normal_offset="0" tang_offset="0" prop_units="false" vertical_pattern="true" hide_knot="false" fuse_tolerance="0"/>
    <inkscape:path-effect effect="spiro" id="path-effect58" is_visible="true" lpeversion="1"/>
    <inkscape:path-effect effect="bspline" id="path-effect39" is_visible="true" lpeversion="1.3" weight="33.333333" steps="2" helper_size="0" apply_no_weight="true" apply_with_weight="true" only_selected="false" uniform="false"/>
    <linearGradient id="swatch23" inkscape:swatch="solid" gradientTransform="matrix(-0.41975512,0,0,0.41975512,134.96291,98.609788)">
      <stop style="stop-color:#a2845d;stop-opacity:1;" offset="0" id="stop23"/>
    </linearGradient>
    <inkscape:path-effect effect="bspline" id="path-effect23" is_visible="true" lpeversion="1.3" weight="33.333333" steps="2" helper_size="0" apply_no_weight="true" apply_with_weight="true" only_selected="false" uniform="false"/>
    <inkscape:path-effect effect="bspline" id="path-effect16" is_visible="true" lpeversion="1.3" weight="33.333333" steps="2" helper_size="0" apply_no_weight="true" apply_with_weight="true" only_selected="false" uniform="false"/>
    <inkscape:path-effect effect="bspline" id="path-effect15" is_visible="true" lpeversion="1.3" weight="33.333333" steps="2" helper_size="0" apply_no_weight="true" apply_with_weight="true" only_selected="false" uniform="false"/>
    <inkscape:path-effect effect="skeletal" id="path-effect47" is_visible="true" lpeversion="1" pattern="m -98.539612,49.205364 -1.528698,74.086036 c -7.26652,18.0045 -9.92686,-9.16893 -6.31801,-58.562138 l -6.91858,58.597108 -21.80352,-5.56888 c 0,0 -3.11974,-61.570432 -3.16495,-59.760263 -1.45047,58.068883 5.16467,63.871403 -10.0346,58.019843 0.0597,-12.78678 -1.5185,-19.582714 6.63918,-61.987305 l 11.10145,-15.641556" copytype="single_stretched" prop_scale="0.62673175" scale_y_rel="false" spacing="0" normal_offset="0" tang_offset="25" prop_units="false" vertical_pattern="true" hide_knot="false" fuse_tolerance="0"/>
    <inkscape:path-effect effect="spiro" id="path-effect46" is_visible="true" lpeversion="1"/>
    <inkscape:path-effect effect="skeletal" id="path-effect45" is_visible="true" lpeversion="1" pattern="M 1.88967,2.87282 14.17788,1.889762 32.11868,8.771163 13.44059,27.94078 Z" copytype="single_stretched" prop_scale="0.75" scale_y_rel="false" spacing="0" normal_offset="0" tang_offset="0" prop_units="false" vertical_pattern="false" hide_knot="false" fuse_tolerance="0"/>
    <inkscape:path-effect effect="spiro" id="path-effect44" is_visible="true" lpeversion="1"/>
    <inkscape:path-effect effect="skeletal" id="path-effect43" is_visible="true" lpeversion="1" pattern="M 1.88967,2.87282 14.17788,1.889762 32.11868,8.771163 13.44059,27.94078 Z" copytype="single_stretched" prop_scale="1.3" scale_y_rel="false" spacing="0" normal_offset="0" tang_offset="0" prop_units="false" vertical_pattern="false" hide_knot="false" fuse_tolerance="0"/>
    <inkscape:path-effect effect="spiro" id="path-effect42" is_visible="true" lpeversion="1"/>
    <inkscape:path-effect effect="bspline" id="path-effect38" is_visible="true" lpeversion="1.3" weight="33.333333" steps="2" helper_size="0" apply_no_weight="true" apply_with_weight="true" only_selected="false" uniform="false"/>
    <inkscape:path-effect effect="skeletal" id="path-effect37" is_visible="true" lpeversion="1" pattern="M 1.889669,2.87282 14.177885,1.889762 32.11868,8.771163 13.440592,27.94078 Z" copytype="single_stretched" prop_scale="0.53" scale_y_rel="false" spacing="0" normal_offset="0" tang_offset="0" prop_units="false" vertical_pattern="false" hide_knot="false" fuse_tolerance="0"/>
    <inkscape:path-effect effect="spiro" id="path-effect36" is_visible="true" lpeversion="1"/>
    <inkscape:path-effect effect="skeletal" id="path-effect35" is_visible="true" lpeversion="1" pattern="M 1.889669,2.87282 14.177885,1.889762 32.11868,8.771163 13.440592,27.94078 Z" copytype="single_stretched" prop_scale="1" scale_y_rel="false" spacing="0" normal_offset="0" tang_offset="0" prop_units="false" vertical_pattern="false" hide_knot="false" fuse_tolerance="0"/>
    <inkscape:path-effect effect="spiro" id="path-effect34" is_visible="true" lpeversion="1"/>
    <inkscape:path-effect effect="skeletal" id="path-effect32" is_visible="true" lpeversion="1" pattern="M 4.0144147,73.632956 49.438794,111.60518 c 4.910918,15.5984 -14.612744,4.64679 -42.5955511,-23.06192 l 30.8531461,35.30851 -22.89522,17.3962 c 0,0 -41.652628,-27.50134 -40.549746,-26.56629 35.3795719,29.99583 44.923118,26.74751 27.7191542,37.90253 -8.021363,-6.36519 -13.7155062,-8.2607 -33.2422852,-36.72335 l -0.01036,-17.975429" copytype="single_stretched" prop_scale="0.3301707" scale_y_rel="false" spacing="0" normal_offset="0" tang_offset="0" prop_units="false" vertical_pattern="true" hide_knot="false" fuse_tolerance="0"/>
    <inkscape:path-effect effect="spiro" id="path-effect31" is_visible="true" lpeversion="1"/>
    <inkscape:path-effect effect="fillet_chamfer" id="path-effect29" is_visible="true" lpeversion="1" nodesatellites_param="F,0,0,1,0,0,0,1 @ F,0,0,1,0,0,0,1" radius="0" unit="px" method="auto" mode="F" chamfer_steps="1" flexible="false" use_knot_distance="true" apply_no_radius="true" apply_with_radius="true" only_selected="false" hide_knots="false"/>
    <inkscape:path-effect effect="skeletal" id="path-effect24" is_visible="true" lpeversion="1" pattern="M 0.901113,9.27795 C 3.383372,-2.17546 7.327425,0.01454 11.154229,1.11022 0.124496,17.00756 7.024417,20.71274 6.288344,29.6104 4.429527,22.982 -1.923224,26.97562 0.901113,9.27795 Z" copytype="single_stretched" prop_scale="1" scale_y_rel="false" spacing="0" normal_offset="0" tang_offset="0" prop_units="false" vertical_pattern="false" hide_knot="false" fuse_tolerance="0"/>
    <inkscape:path-effect effect="spiro" id="path-effect14" is_visible="true" lpeversion="1"/>
    <inkscape:path-effect effect="fillet_chamfer" id="path-effect12" is_visible="true" lpeversion="1" nodesatellites_param="F,0,0,1,0,0,0,1 @ F,0,0,1,0,0,0,1 @ F,0,0,1,0,0,0,1 @ F,0,0,1,0,0,0,1 @ F,0,0,1,0,0,0,1 @ F,0,0,1,0,0,0,1 @ F,0,0,1,0,0,0,1 @ F,0,0,1,0,0,0,1 @ F,0,0,1,0,0,0,1 @ F,0,0,1,0,0,0,1 @ F,0,0,1,0,0,0,1 @ F,0,0,1,0,0,0,1 @ F,0,0,1,0,0,0,1 @ F,0,0,1,0,0,0,1 @ F,0,0,1,0,0,0,1 @ F,0,0,1,0,0,0,1 @ F,0,0,1,0,0,0,1 @ F,0,0,1,0,0,0,1 @ F,0,0,1,0,0,0,1 @ F,0,0,1,0,0,0,1 @ F,0,0,1,0,0,0,1 @ F,0,0,1,0,0,0,1 @ F,0,0,1,0,0,0,1 @ F,0,0,1,0,0,0,1 @ F,0,0,1,0,0,0,1 @ F,0,0,1,0,0,0,1 @ F,0,0,1,0,0,0,1 @ F,0,0,1,0,0,0,1 @ F,0,0,1,0,0,0,1 @ F,0,0,1,0,0,0,1 @ F,0,0,1,0,0,0,1 @ F,0,0,1,0,0,0,1 @ F,0,0,1,0,0,0,1 @ F,0,0,1,0,0,0,1 @ F,0,0,1,0,0,0,1 @ F,0,0,1,0,2.4655793,0,1 @ F,0,0,1,0,0,0,1 @ F,0,0,1,0,0,0,1 @ F,0,0,1,0,0,0,1 @ F,0,0,1,0,0,0,1 @ F,0,0,1,0,0,0,1 @ F,0,0,1,0,0,0,1" radius="0" unit="px" method="auto" mode="F" chamfer_steps="1" flexible="false" use_knot_distance="true" apply_no_radius="true" apply_with_radius="true" only_selected="false" hide_knots="false"/>
    <inkscape:path-effect effect="spiro" id="path-effect11" is_visible="true" lpeversion="1"/>
    <inkscape:path-effect effect="spiro" id="path-effect7" is_visible="true" lpeversion="1"/>
    <linearGradient id="linearGradient33" inkscape:collect="always">
      <stop style="stop-color:#e9caca;stop-opacity:1;" offset="0" id="stop36"/>
      <stop style="stop-color:#e9caca;stop-opacity:0;" offset="1" id="stop37"/>
    </linearGradient>
    <inkscape:path-effect effect="bspline" id="path-effect30" is_visible="true" lpeversion="1.3" weight="33.333333" steps="2" helper_size="0" apply_no_weight="true" apply_with_weight="true" only_selected="false" uniform="false"/>
    <inkscape:path-effect effect="bspline" id="path-effect28" is_visible="true" lpeversion="1.3" weight="33.333333" steps="2" helper_size="0" apply_no_weight="true" apply_with_weight="true" only_selected="false" uniform="false"/>
    <linearGradient id="linearGradient34" inkscape:collect="always">
      <stop style="stop-color:#f1e1cb;stop-opacity:1;" offset="0" id="stop33"/>
      <stop style="stop-color:#cead81;stop-opacity:1;" offset="0.53396094" id="stop34"/>
      <stop style="stop-color:#553b1d;stop-opacity:1;" offset="0.98819876" id="stop35"/>
    </linearGradient>
    <inkscape:path-effect effect="bspline" id="path-effect13" is_visible="true" lpeversion="1.3" weight="33.333333" steps="2" helper_size="0" apply_no_weight="true" apply_with_weight="true" only_selected="false" uniform="false"/>
    <linearGradient id="linearGradient5" inkscape:collect="always">
      <stop style="stop-color:#f9f6f2;stop-opacity:1;" offset="0" id="stop5"/>
      <stop style="stop-color:#e5c47f;stop-opacity:0;" offset="0.25677207" id="stop6"/>
    </linearGradient>
    <inkscape:path-effect effect="fillet_chamfer" id="path-effect10" nodesatellites_param="F,0,0,1,0,0,0,1 @ F,0,0,1,0,0,0,1 @ F,0,0,1,0,5.7002433,0,1 @ F,0,0,1,0,4.0239683,0,1 @ F,0,0,1,0,0,0,1 @ F,0,0,1,0,0,0,1 @ F,0,0,1,0,6.5730673,0,1 @ F,0,0,1,0,6.5730673,0,1 @ F,0,0,1,0,0,0,1" is_visible="true" lpeversion="1" radius="0" unit="px" method="auto" mode="F" chamfer_steps="1" flexible="false" use_knot_distance="true" apply_no_radius="true" apply_with_radius="true" only_selected="false" hide_knots="false"/>
    <inkscape:path-effect effect="fillet_chamfer" id="path-effect9" is_visible="true" lpeversion="1" nodesatellites_param="F,0,0,1,0,3.6718966,0,1 @ F,0,0,1,0,3.6830833,0,1 @ F,0,0,1,0,0,0,1 @ F,0,1,1,0,3.6830833,0,1" radius="0" unit="px" method="auto" mode="F" chamfer_steps="1" flexible="false" use_knot_distance="true" apply_no_radius="true" apply_with_radius="true" only_selected="false" hide_knots="false"/>
    <inkscape:path-effect effect="fillet_chamfer" id="path-effect8" is_visible="true" lpeversion="1" nodesatellites_param="F,0,0,1,0,0,0,1 @ F,0,0,1,0,3.4733559,0,1 @ F,0,0,1,0,0,0,1" radius="0" unit="px" method="auto" mode="F" chamfer_steps="1" flexible="false" use_knot_distance="true" apply_no_radius="true" apply_with_radius="true" only_selected="false" hide_knots="false"/>
    <inkscape:path-effect effect="fillet_chamfer" id="path-effect4" is_visible="true" lpeversion="1" nodesatellites_param="F,0,0,1,0,0,0,1 @ F,0,1,1,0,4.3457536,0,1 @ F,0,0,1,0,0,0,1 @ F,0,0,1,0,7.1261074,0,1" radius="0" unit="px" method="auto" mode="F" chamfer_steps="1" flexible="false" use_knot_distance="true" apply_no_radius="true" apply_with_radius="true" only_selected="false" hide_knots="false"/>
    <inkscape:path-effect effect="fillet_chamfer" id="path-effect10-9" nodesatellites_param="F,0,0,1,0,4.2373828,0,1 @ F,0,1,1,0,4.2373828,0,1 @ F,0,0,1,0,6.5730673,0,1 @ F,0,0,1,0,6.5730673,0,1" is_visible="true" lpeversion="1" radius="0" unit="px" method="auto" mode="F" chamfer_steps="1" flexible="false" use_knot_distance="true" apply_no_radius="true" apply_with_radius="true" only_selected="false" hide_knots="false"/>
    <inkscape:path-effect effect="fillet_chamfer" id="path-effect4-7" is_visible="true" lpeversion="1" nodesatellites_param="F,0,0,1,0,0,0,1 @ F,0,1,1,0,4.3457536,0,1 @ F,0,0,1,0,0,0,1 @ F,0,0,1,0,7.1261074,0,1" radius="0" unit="px" method="auto" mode="F" chamfer_steps="1" flexible="false" use_knot_distance="true" apply_no_radius="true" apply_with_radius="true" only_selected="false" hide_knots="false"/>
    <inkscape:path-effect effect="fillet_chamfer" id="path-effect4-7-6" is_visible="true" lpeversion="1" nodesatellites_param="F,0,0,1,0,0,0,1 @ F,0,1,1,0,4.3457536,0,1 @ F,0,0,1,0,0,0,1 @ F,0,0,1,0,7.1261074,0,1" radius="0" unit="px" method="auto" mode="F" chamfer_steps="1" flexible="false" use_knot_distance="true" apply_no_radius="true" apply_with_radius="true" only_selected="false" hide_knots="false"/>
    <inkscape:path-effect effect="fillet_chamfer" id="path-effect4-7-6-6" is_visible="true" lpeversion="1" nodesatellites_param="F,0,0,1,0,0,0,1 @ F,0,1,1,0,4.3457536,0,1 @ F,0,0,1,0,0,0,1 @ F,0,0,1,0,7.1261074,0,1" radius="0" unit="px" method="auto" mode="F" chamfer_steps="1" flexible="false" use_knot_distance="true" apply_no_radius="true" apply_with_radius="true" only_selected="false" hide_knots="false"/>
    <inkscape:path-effect effect="fillet_chamfer" id="path-effect4-7-1" is_visible="true" lpeversion="1" nodesatellites_param="F,0,0,1,0,0,0,1 @ F,0,1,1,0,4.3457536,0,1 @ F,0,0,1,0,0,0,1 @ F,0,0,1,0,0,0,1" radius="0" unit="px" method="auto" mode="F" chamfer_steps="1" flexible="false" use_knot_distance="true" apply_no_radius="true" apply_with_radius="true" only_selected="false" hide_knots="false"/>
    <linearGradient id="linearGradient1" inkscape:collect="always">
      <stop style="stop-color:#ebead1;stop-opacity:1;" offset="0" id="stop1"/>
      <stop style="stop-color:#a9a957;stop-opacity:1;" offset="1" id="stop2"/>
    </linearGradient>
    <radialGradient inkscape:collect="always" xlink:href="#linearGradient5" id="radialGradient6" cx="147.07062" cy="150.52493" fx="147.07062" fy="150.52493" r="3.6464341" gradientTransform="matrix(-0.18364405,-8.2671937,10.112459,0.01988581,-1376.928,1332.9602)" gradientUnits="userSpaceOnUse"/>
    <inkscape:path-effect effect="bspline" id="path-effect13-7" is_visible="true" lpeversion="1.3" weight="33.333333" steps="2" helper_size="0" apply_no_weight="true" apply_with_weight="true" only_selected="false" uniform="false"/>
    <inkscape:path-effect effect="fillet_chamfer" id="path-effect4-7-1-6" is_visible="true" lpeversion="1" nodesatellites_param="F,0,0,1,0,0,0,1 @ F,0,1,1,0,4.3457536,0,1 @ F,0,0,1,0,0,0,1 @ F,0,0,1,0,0,0,1" radius="0" unit="px" method="auto" mode="F" chamfer_steps="1" flexible="false" use_knot_distance="true" apply_no_radius="true" apply_with_radius="true" only_selected="false" hide_knots="false"/>
    <inkscape:path-effect effect="fillet_chamfer" id="path-effect5" is_visible="true" lpeversion="1" nodesatellites_param="F,0,0,1,0,0,0,1 @ F,0,1,1,0,4.3457536,0,1 @ F,0,0,1,0,0,0,1 @ F,0,0,1,0,0,0,1" radius="0" unit="px" method="auto" mode="F" chamfer_steps="1" flexible="false" use_knot_distance="true" apply_no_radius="true" apply_with_radius="true" only_selected="false" hide_knots="false"/>
    <linearGradient inkscape:collect="always" xlink:href="#linearGradient1" id="linearGradient3" gradientUnits="userSpaceOnUse" gradientTransform="matrix(-1,0,0,1,284.19498,1.6038905)" x1="127.82151" y1="143.83101" x2="134.1667" y2="128.02144" spreadMethod="pad"/>
    <linearGradient inkscape:collect="always" xlink:href="#linearGradient34" id="linearGradient4" gradientUnits="userSpaceOnUse" gradientTransform="translate(4.35579,1.3314847)" x1="129.81363" y1="140.38579" x2="134.1667" y2="128.02144" spreadMethod="pad"/>
    <inkscape:path-effect effect="bspline" id="path-effect28-0" is_visible="true" lpeversion="1.3" weight="33.333333" steps="2" helper_size="0" apply_no_weight="true" apply_with_weight="true" only_selected="false" uniform="false"/>
    <radialGradient inkscape:collect="always" xlink:href="#linearGradient33" id="radialGradient37" cx="139.32359" cy="154.49309" fx="139.32359" fy="154.49309" r="9.1555233" gradientUnits="userSpaceOnUse" gradientTransform="matrix(3.0941315,0,0,2.3823414,-286.28146,-249.88492)"/>
    <radialGradient inkscape:collect="always" xlink:href="#linearGradient33" id="radialGradient37-2" cx="139.32359" cy="154.49309" fx="139.32359" fy="154.49309" r="9.1555233" gradientUnits="userSpaceOnUse" gradientTransform="matrix(3.0941315,0,0,2.3823414,-352.65084,-250.02282)"/>
    <inkscape:path-effect effect="spiro" id="path-effect31-1" is_visible="true" lpeversion="1"/>
    <inkscape:path-effect effect="skeletal" id="path-effect32-8" is_visible="true" lpeversion="1" pattern="M 18.755375,1.8271512 113.51861,36.114759 c 29.02888,-2.822742 -2.92594,-20.61011 -68.357935,-39.2798848 l 79.919235,17.8818908 11.94813,-38.038904 c 0,0 -74.934651,-35.598137 -72.612429,-34.773096 74.495239,26.466604 76.057209,40.048321 81.902459,12.554098 -16.17793,-6.248043 -23.37535,-12.173548 -83.951634,-20.016134 l -29.385644,10.199713" copytype="single_stretched" prop_scale="0.4348807" scale_y_rel="false" spacing="0" normal_offset="0" tang_offset="0" prop_units="false" vertical_pattern="false" hide_knot="false" fuse_tolerance="0"/>
    <inkscape:path-effect effect="spiro" id="path-effect46-3" is_visible="true" lpeversion="1"/>
    <inkscape:path-effect effect="skeletal" id="path-effect47-7" is_visible="true" lpeversion="1" pattern="m -60.28245,96.816555 c 9.96508,1.148839 -1.821766,-15.610457 9.294377,-21.942805 11.309785,0.265365 -3.295921,-17.234789 6.475557,-22.683663 10.447169,0.74743 -0.469142,-17.772445 8.103448,-22.689454 l -3.679199,-2.321251 c -8.57259,4.91701 1.299341,20.433133 -9.382544,19.414771 -9.289381,5.047479 5.610321,25.502618 -5.377538,25.322904 -10.312162,6.016572 2.001014,24.002208 -7.964066,22.853379" copytype="repeated_stretched" prop_scale="1" scale_y_rel="false" spacing="0" normal_offset="0" tang_offset="0" prop_units="false" vertical_pattern="false" hide_knot="false" fuse_tolerance="0"/>
    <inkscape:path-effect effect="spiro" id="path-effect46-9" is_visible="true" lpeversion="1"/>
    <inkscape:path-effect effect="skeletal" id="path-effect47-73" is_visible="true" lpeversion="1" pattern="M 1.88967,2.87282 14.17788,1.889762 32.11868,8.771163 13.44059,27.94078 Z" copytype="single_stretched" prop_scale="1.5" scale_y_rel="false" spacing="0" normal_offset="0" tang_offset="25" prop_units="false" vertical_pattern="false" hide_knot="false" fuse_tolerance="0"/>
    <inkscape:path-effect effect="spiro" id="path-effect36-4" is_visible="true" lpeversion="1"/>
    <inkscape:path-effect effect="skeletal" id="path-effect37-5" is_visible="true" lpeversion="1" pattern="M 1.889669,2.87282 14.177885,1.889762 32.11868,8.771163 13.440592,27.94078 Z" copytype="single_stretched" prop_scale="0.53" scale_y_rel="false" spacing="0" normal_offset="0" tang_offset="0" prop_units="false" vertical_pattern="false" hide_knot="false" fuse_tolerance="0"/>
    <inkscape:path-effect effect="bspline" id="path-effect23-2" is_visible="true" lpeversion="1.3" weight="33.333333" steps="2" helper_size="0" apply_no_weight="true" apply_with_weight="true" only_selected="false" uniform="false"/>
    <inkscape:path-effect effect="bspline" id="path-effect30-3" is_visible="true" lpeversion="1.3" weight="33.333333" steps="2" helper_size="0" apply_no_weight="true" apply_with_weight="true" only_selected="false" uniform="false"/>
    <inkscape:path-effect effect="spiro" id="path-effect58-0" is_visible="true" lpeversion="1"/>
    <inkscape:path-effect effect="skeletal" id="path-effect59-9" is_visible="true" lpeversion="1" pattern="M 1.8205553,12.93898 C -2.13237,10.00867 1.475788,7.43356 8.5705553,3.31398 14.993188,-0.41533 31.822593,0.83784 31.570555,1.75148 l -8,9.1875 c -9.567544,-2.76493 -14.4999997,1.33333 -21.7499997,2 z" copytype="repeated_stretched" prop_scale="-0.7004642" scale_y_rel="false" spacing="-3" normal_offset="0" tang_offset="0" prop_units="false" vertical_pattern="true" hide_knot="false" fuse_tolerance="0"/>
    <linearGradient inkscape:collect="always" xlink:href="#swatch59" id="linearGradient59" x1="94.61286" y1="148.03283" x2="125.37546" y2="148.03283" gradientUnits="userSpaceOnUse"/>
    <inkscape:path-effect effect="fillet_chamfer" id="path-effect1" is_visible="true" lpeversion="1" nodesatellites_param="F,0,0,1,0,0,0,1 @ F,0,1,1,0,4.3457536,0,1 @ F,0,0,1,0,0,0,1 @ F,0,0,1,0,0,0,1" radius="0" unit="px" method="auto" mode="F" chamfer_steps="1" flexible="false" use_knot_distance="true" apply_no_radius="true" apply_with_radius="true" only_selected="false" hide_knots="false"/>
    <inkscape:path-effect effect="bspline" id="path-effect23-4" is_visible="true" lpeversion="1.3" weight="33.333333" steps="2" helper_size="0" apply_no_weight="true" apply_with_weight="true" only_selected="false" uniform="false"/>
    <inkscape:path-effect effect="bspline" id="path-effect28-0-3" is_visible="true" lpeversion="1.3" weight="33.333333" steps="2" helper_size="0" apply_no_weight="true" apply_with_weight="true" only_selected="false" uniform="false"/>
    <inkscape:path-effect effect="bspline" id="path-effect30-7" is_visible="true" lpeversion="1.3" weight="33.333333" steps="2" helper_size="0" apply_no_weight="true" apply_with_weight="true" only_selected="false" uniform="false"/>
    <inkscape:path-effect effect="fillet_chamfer" id="path-effect4-7-1-2" is_visible="true" lpeversion="1" nodesatellites_param="F,0,0,1,0,0,0,1 @ F,0,1,1,0,4.3457536,0,1 @ F,0,0,1,0,0,0,1 @ F,0,0,1,0,0,0,1" radius="0" unit="px" method="auto" mode="F" chamfer_steps="1" flexible="false" use_knot_distance="true" apply_no_radius="true" apply_with_radius="true" only_selected="false" hide_knots="false"/>
    <inkscape:path-effect effect="fillet_chamfer" id="path-effect1-1" is_visible="true" lpeversion="1" nodesatellites_param="F,0,0,1,0,0,0,1 @ F,0,1,1,0,4.3457536,0,1 @ F,0,0,1,0,0,0,1 @ F,0,0,1,0,0,0,1" radius="0" unit="px" method="auto" mode="F" chamfer_steps="1" flexible="false" use_knot_distance="true" apply_no_radius="true" apply_with_radius="true" only_selected="false" hide_knots="false"/>
    <inkscape:path-effect effect="bspline" id="path-effect23-9" is_visible="true" lpeversion="1.3" weight="33.333333" steps="2" helper_size="0" apply_no_weight="true" apply_with_weight="true" only_selected="false" uniform="false"/>
    <inkscape:path-effect effect="bspline" id="path-effect28-0-7" is_visible="true" lpeversion="1.3" weight="33.333333" steps="2" helper_size="0" apply_no_weight="true" apply_with_weight="true" only_selected="false" uniform="false"/>
    <inkscape:path-effect effect="fillet_chamfer" id="path-effect4-7-1-4" is_visible="true" lpeversion="1" nodesatellites_param="F,0,0,1,0,0,0,1 @ F,0,1,1,0,4.3457536,0,1 @ F,0,0,1,0,0,0,1 @ F,0,0,1,0,0,0,1" radius="0" unit="px" method="auto" mode="F" chamfer_steps="1" flexible="false" use_knot_distance="true" apply_no_radius="true" apply_with_radius="true" only_selected="false" hide_knots="false"/>
    <inkscape:path-effect effect="fillet_chamfer" id="path-effect1-6" is_visible="true" lpeversion="1" nodesatellites_param="F,0,0,1,0,0,0,1 @ F,0,1,1,0,4.3457536,0,1 @ F,0,0,1,0,0,0,1 @ F,0,0,1,0,0,0,1" radius="0" unit="px" method="auto" mode="F" chamfer_steps="1" flexible="false" use_knot_distance="true" apply_no_radius="true" apply_with_radius="true" only_selected="false" hide_knots="false"/>
    <inkscape:path-effect effect="bspline" id="path-effect23-0" is_visible="true" lpeversion="1.3" weight="33.333333" steps="2" helper_size="0" apply_no_weight="true" apply_with_weight="true" only_selected="false" uniform="false"/>
    <inkscape:path-effect effect="bspline" id="path-effect28-0-8" is_visible="true" lpeversion="1.3" weight="33.333333" steps="2" helper_size="0" apply_no_weight="true" apply_with_weight="true" only_selected="false" uniform="false"/>
    <inkscape:path-effect effect="bspline" id="path-effect30-76" is_visible="true" lpeversion="1.3" weight="33.333333" steps="2" helper_size="0" apply_no_weight="true" apply_with_weight="true" only_selected="false" uniform="false"/>
    <inkscape:path-effect effect="fillet_chamfer" id="path-effect4-7-1-0" is_visible="true" lpeversion="1" nodesatellites_param="F,0,0,1,0,0,0,1 @ F,0,1,1,0,4.3457536,0,1 @ F,0,0,1,0,0,0,1 @ F,0,0,1,0,0,0,1" radius="0" unit="px" method="auto" mode="F" chamfer_steps="1" flexible="false" use_knot_distance="true" apply_no_radius="true" apply_with_radius="true" only_selected="false" hide_knots="false"/>
    <inkscape:path-effect effect="fillet_chamfer" id="path-effect1-4" is_visible="true" lpeversion="1" nodesatellites_param="F,0,0,1,0,0,0,1 @ F,0,1,1,0,4.3457536,0,1 @ F,0,0,1,0,0,0,1 @ F,0,0,1,0,0,0,1" radius="0" unit="px" method="auto" mode="F" chamfer_steps="1" flexible="false" use_knot_distance="true" apply_no_radius="true" apply_with_radius="true" only_selected="false" hide_knots="false"/>
  </defs>
  <g inkscape:groupmode="layer" id="layer4" inkscape:label="HairBack" inkscape:highlight-color="#f3ef21" style="display:inline">
    <path style="display:inline;fill:#d9d76f;fill-opacity:1;stroke:#4d4600;stroke-width:3.77953;stroke-linecap:round;stroke-linejoin:round;stroke-dasharray:none;stroke-dashoffset:0;stroke-opacity:1;paint-order:markers fill stroke" d="m -25.087042,57.802525 c 2.705307,0.301906 5.263506,1.287064 7.475188,2.881443 2.479314,1.838047 4.324927,4.196985 5.456395,6.816596 1.12258,2.599896 1.645657,5.282602 1.637402,7.875571 -10e-7,10e-7 -10e-7,3e-6 0,4e-6 -0.101164,5.154587 -1.597893,9.678036 -3.588571,13.371245 -10e-7,0 -10e-7,10e-7 -10e-7,2e-6 -1.451231,2.928323 -2.865685,5.066193 -3.336317,6.780012 -0.243336,0.841731 -0.407899,1.543953 -0.361841,2.046485 0,0 0,1e-6 0,1e-6 0.05401,0.475705 0.100066,0.849877 0.205586,0.915647 -0.02932,0.185963 0.566779,0.532109 1.383845,1.132109 0.88783,0.56264 2.297314,1.10368 4.064751,1.93701 1.808346,0.77138 3.9241132,1.96448 6.0939647,3.83613 2.2800656,1.89733 3.9889599,4.83846 4.6156588,8.60568 0.2795362,2.94359 -0.3113445,5.65957 -1.6159771,7.91361 -1.6e-6,0 -3.3e-6,1e-5 -4.9e-6,1e-5 -1.2824858,2.21659 -2.9226638,3.95206 -4.7453739,5.17727 -3.6553246,2.33447 -7.1609646,3.36045 -9.9788476,3.82204 -1e-6,0 -2e-6,0 -3e-6,0 -2.742222,0.6537 -4.84579,0.92855 -5.936362,1.64659 -1e-6,0 -2e-6,0 -2e-6,0 -0.541864,0.3229 -0.950764,0.5823 -1.078289,0.80256 -0.100734,0.1977 -0.199053,0.29572 -0.109193,0.15071 -0.03088,-0.19203 0.05741,-0.0743 0.09567,0.0827 0.0051,0.0172 0.01234,0.0352 0.02167,0.0539 0.06266,0.21548 0.361008,0.5254 0.747216,0.88346 0.829615,0.91393 2.866879,1.31364 5.429978,1.92415 2.628774,0.44171 6.006679,0.86504 9.8191845,2.17353 4.1e-6,0 6.8e-6,0 9.5e-6,0 1.9118502,0.67241 3.8562114,1.70533 5.7009075,3.15574 1.8666431,1.459 3.44281857,3.44931 4.5305153,5.8886 1.8e-6,1e-5 3.6e-6,1e-5 5.4e-6,2e-5 1.2002137,2.93496 1.435228,5.98154 0.8049041,8.8092 -0.627917,2.79747 -1.88048561,5.24959 -3.5602451,7.23348 -3.4166007,3.86755 -7.6071274,6.10891 -11.6295512,7.21191 -2e-6,0 -3e-6,0 -5e-6,0 -3.945917,1.1743 -7.551021,1.67077 -10.64101,2.37852 -3.042427,0.79024 -5.768705,1.59444 -7.516442,3.10936 -1.94271,1.47359 -3.359419,3.96172 -3.892707,6.57385 -0.549852,2.63851 -0.131803,5.62776 1.012154,8.30023 1.148397,2.69165 3.165363,5.13406 5.620708,7.0615 3e-6,0 4e-6,0 5e-6,0 2.464951,1.93449 5.467766,3.32745 8.659011,4.21014 3e-6,0 5e-6,0 8e-6,0 2.832019,0.71484 6.557784,1.25003 10.3787744,3.27375 1.9259004,1.04598 3.6851313,2.66364 4.9417994,4.82096 1.2877696,2.21102 1.6507763,4.94563 0.8410601,7.6491 -0.9283756,2.72548 -3.0479143,4.7445 -5.7663957,5.55187 -2.7330932,0.7592 -5.5583402,0.15508 -7.7245442,-1.60828 2.260367,1.64626 5.055416,2.03759 7.5938172,1.17688 2.5257377,-0.90246 4.3527891,-2.91789 5.0372047,-5.39123 0.5963197,-2.4558 0.081631,-4.84895 -1.1512192,-6.70278 -1.2135612,-1.82039 -2.8701576,-3.10539 -4.6319497,-3.91436 -2e-6,0 -5e-6,0 -8e-6,-1e-5 -3.507779,-1.58257 -7.003569,-1.70953 -10.155378,-2.23148 -3.576792,-0.61639 -7.094369,-1.85028 -10.218709,-3.82667 -3.122966,-1.9754 -5.859128,-4.70207 -7.715101,-8.03577 0,0 -2e-6,0 -4e-6,0 -1.855985,-3.33421 -2.801817,-7.28102 -2.420035,-11.25163 0.384948,-3.97505 2.152299,-7.91014 5.192315,-10.83593 2.85568,-2.68141 6.459131,-4.32423 9.972976,-5.43241 3.493017,-1.14496 6.920031,-1.91909 9.870064,-3.1467 2.907277,-1.26633 5.527795,-2.85257 6.8065542,-4.98236 10e-7,-10e-6 2e-6,-10e-6 2.9e-6,-10e-6 0.6578492,-1.03296 1.0946851,-2.13897 1.1501816,-3.14424 0.05379,-0.98425 -0.1312309,-1.95491 -0.5636483,-2.56108 -0.313885,-0.546 -0.9220157,-1.05586 -1.6081008,-1.5024 -0.7029396,-0.4532 -1.6244936,-0.77048 -2.6505106,-1.04338 -2e-6,0 -3e-6,0 -5e-6,0 -2.061009,-0.57468 -4.736952,-0.54564 -7.96364,-0.88338 -3e-6,0 -6e-6,0 -9e-6,0 -3.282599,-0.19293 -7.140986,-1.02133 -11.102788,-3.3799 -1.973275,-1.23855 -3.751525,-3.027 -5.127754,-5.35822 -1.39477,-2.36887 -2.043834,-5.24048 -1.728261,-8.37456 0.123254,-0.85903 0.310724,-1.68522 0.557741,-2.4734 0.73418,-1.70889 1.744647,-3.15264 2.949591,-4.31073 1.715412,-1.65174 3.560942,-2.7818 5.399723,-3.47868 2e-6,0 4e-6,0 6e-6,0 3.671694,-1.33086 6.818938,-1.55532 9.426128,-1.65217 2.553152,-0.23362 4.737607,-0.25331 6.341331,-1.03135 0.804568,-0.35706 1.557995,-0.80527 2.073674,-1.3916 0.505114,-0.56851 0.925047,-1.29692 1.002642,-2.02036 0.203095,-0.95422 -0.318377,-2.22144 -1.151163,-3.36395 -10e-7,0 -10e-7,0 -2e-6,0 -0.864266,-1.1503 -2.190817,-2.12541 -3.616712,-3.07066 -1.43301,-0.93453 -2.998049,-1.84219 -4.396489,-2.96383 -1.402879,-1.11909 -2.627614,-2.50353 -3.231858,-4.07109 -0.503211,-1.28658 -0.586822,-2.667833 -0.407441,-3.967465 1e-6,-2e-6 1e-6,-3e-6 1e-6,-5e-6 0.18047,-1.303346 0.646716,-2.543007 1.241691,-3.716338 1e-6,-10e-7 1e-6,-3e-6 2e-6,-4e-6 1.186338,-2.353576 3.011779,-4.408936 4.734113,-6.923106 1e-6,-2e-6 2e-6,-3e-6 3e-6,-5e-6 2.250886,-3.185742 4.157695,-6.992598 4.73855,-11.613518 0,-2e-6 0,-4e-6 0,-6e-6 0.262956,-2.320659 0.06857,-4.796277 -0.725637,-7.285005 -10e-7,-2e-6 -2e-6,-5e-6 -2e-6,-7e-6 -0.801059,-2.503878 -2.293223,-4.885439 -4.509352,-6.85134 -1.976853,-1.709867 -4.387925,-2.910562 -7.067223,-3.442136 z" id="path35" transform="matrix(0.66311147,-0.00961665,0.00961665,0.66311147,184.60803,13.074522)" inkscape:original-d="m -25.805253,64.144486 c 1.310743,0.409607 2.86725,1.064979 4.423758,1.72035 1.556507,0.655372 0.983057,13.271273 1.474586,19.90691 0.491528,6.635636 -2.293801,10.649787 -3.440701,15.974684 -1.1469,5.32489 10.158258,8.68367 15.2373876,13.0255 5.0791292,4.34184 -15.7289156,11.79669 -23.5933746,17.69504 -7.864458,5.89834 18.350403,11.79668 27.5256037,17.69503 9.175201,5.89834 -20.1526737,14.9097 -30.2290107,22.36455 -10.076337,7.45485 9.175201,22.61032 13.762802,33.91547 4.5876,11.30516 9.175201,7.20909 13.7628012,10.81363 4.5876005,3.60455 -5.4068152,1.63843 -8.1102222,2.45765" inkscape:path-effect="#path-effect36;#path-effect37"/>
    <path style="display:inline;fill:#d9d76f;fill-opacity:1;stroke:#4d4600;stroke-width:0.983695;stroke-linecap:round;stroke-linejoin:round;stroke-dasharray:none;stroke-dashoffset:0;stroke-opacity:1;paint-order:markers fill stroke" d="m -131.38672,70.110764 c -1.94997,4.02097 -3.47725,8.228563 -4.55993,12.553164 -1.76375,7.429328 -2.27337,14.285715 -2.38268,20.342632 -0.20455,6.07571 -0.15874,11.39154 -0.73209,15.88402 0,0 0,0 0,0 -0.55841,5.59886 -2.54735,11.95175 -4.56093,19.25563 -2.14959,7.242 -4.25948,15.55956 -4.90061,25.01393 0,10e-6 0,10e-6 0,10e-6 -0.45914,12.8862 1.85367,23.55581 2.72017,32.21385 0,0 0,0 0,0 0.34382,4.32467 0.49988,8.19687 -0.0572,11.46439 -0.58527,3.21025 -1.41405,6.05194 -2.79518,7.86074 -0.72305,1.10121 -1.74354,2.12657 -2.91396,2.97784 -1.4421,1.68145 -3.14777,2.93931 -3.80611,3.51386 -0.7785,0.67941 -1.02426,1.12842 -0.44377,1.4243 0.51263,0.2613 6.33614,0.76595 10.94202,-5.27362 1.77192,-2.16874 3.11655,-5.3882 3.95478,-9.71972 0.67251,-3.60172 0.66941,-7.69 0.295,-12.69154 -0.57177,-6.53013 -3.07876,-20.09049 -2.64483,-31.45987 0.5142,-8.44828 2.38307,-16.1609 4.5731,-23.89465 1.83493,-6.81794 3.91137,-13.82831 4.48012,-20.07942 0.34698,-3.19415 0.4164,-6.61525 0.45063,-10.40677 0.0166,3.70877 0.004,7.18335 -0.29018,10.42684 -0.45279,6.20307 -2.29878,12.9149 -4.11304,20.21252 0,1e-5 0,1e-5 0,1e-5 -1.89783,7.25037 -3.72814,15.20509 -4.05443,23.80328 -0.20346,11.71781 2.38767,21.93889 3.56612,31.22937 0.54282,4.64296 0.82446,9.10137 0.30576,13.26769 -0.53244,4.1383 -1.65054,8.10873 -3.72047,11.27231 -1.21851,1.94498 -2.84247,3.7065 -4.7291,5.17085 3.99881,1.5204 8.73321,2.03398 13.71383,1.11289 1.40417,-0.26131 2.81907,-0.62682 4.23401,-1.08753 0,0 3.53712,-5.07785 5.01328,-14.1662 0.84314,-5.08898 1.05285,-10.59067 0.5666,-16.889 -0.66108,-9.63248 -2.87703,-19.86469 -2.0416,-28.91139 0.41433,-6.281 2.4126,-12.90436 4.47092,-19.77197 2.46845,-7.91015 4.62365,-14.85066 5.79166,-22.86579 0.89226,-6.6067 1.11979,-14.75979 1.28347,-18.0119 0.3448,-5.704689 0.71763,-8.473535 0.66449,-7.890547 -0.23168,2.541495 -0.34528,5.231697 -0.44537,7.898357 -0.16475,6.0552 -0.1854,11.69395 -0.94147,18.0743 -1.13429,8.72769 -3.64289,16.8988 -5.47469,23.05054 0,0 0,1e-5 0,1e-5 -2.26752,7.97912 -3.87907,13.80197 -4.18574,19.58572 -0.85122,10.14088 1.63174,20.14341 2.31071,28.71986 0.61158,6.85484 0.37163,12.42914 -0.26972,17.28617 -1.16583,9.08115 -3.68354,13.63411 -3.54133,15.37001 0.13238,1.61589 2.52311,0.85083 6.46087,-2.44284 1.73248,-4.09091 2.80103,-8.1237 3.3539,-11.93187 0.98489,-6.52806 1.0394,-12.81831 0.44707,-18.83455 -0.75925,-9.23947 -3.46279,-18.6642 -3.00779,-27.82683 -0.038,-4.95717 1.15011,-10.17634 3.09451,-18.57193 1.46038,-5.79949 3.74384,-14.56937 4.61279,-23.92892 0.50992,-6.63618 0.29296,-12.27992 0.14745,-18.44256 -0.0494,-4.990044 -0.13255,-10.189837 0.69656,-14.538029 -2.3e-4,-0.03995 -3.9e-4,-0.07987 -4.8e-4,-0.119769 -0.0569,-4.58186 0.7347,-9.394731 2.47173,-14.032654 0,0 0,0 0,-10e-7 1.57759,-4.356865 4.32358,-8.770828 7.32229,-13.278204" id="path45" transform="matrix(3.6753681,-0.26020717,0.42344613,0.97415921,512.59569,-50.969935)" inkscape:original-d="m -97.994991,50.386932 7.098641,-3.459783 -11.46514,11.130185 c -10.1761,9.878805 -23.78268,47.098476 -21.46559,62.738816 2.31709,15.64035 -1.7591,27.49749 -9.6372,43.25369 -7.8781,15.7562 -2.08538,39.62221 -3.12807,59.08575 -1.04269,19.46354 -11.58544,7.18297 -17.37816,11.12202" inkscape:path-effect="#path-effect46;#path-effect47" sodipodi:nodetypes="ccssssc"/>
  </g>
</svg>
