<svg xmlns="http://www.w3.org/2000/svg" viewBox="0 0 96 48" width="96" height="48">
  <defs>
    <linearGradient id="sandalLeatherL" x1="0%" y1="0%" x2="0%" y2="100%">
      <stop offset="0%" stop-color="#3a2818"/>
      <stop offset="50%" stop-color="#2a1c10"/>
      <stop offset="100%" stop-color="#1a1208"/>
    </linearGradient>
    <linearGradient id="soleGradL" x1="0%" y1="0%" x2="0%" y2="100%">
      <stop offset="0%" stop-color="#2a1c10"/>
      <stop offset="100%" stop-color="#181008"/>
    </linearGradient>
  </defs>
  <!-- Sole base -->
  <path d="M14 36 Q10 38 12 44 Q20 48 60 48 Q82 48 88 44 Q92 38 86 34 Q76 30 40 30 Q20 30 14 36 Z" fill="url(#soleGradL)" stroke="#0a0a0a" stroke-width="2"/>
  <!-- Sole wear texture -->
  <line x1="30" y1="42" x2="50" y2="42" stroke="#241810" stroke-width="0.8" opacity="0.4"/>
  <line x1="55" y1="44" x2="75" y2="44" stroke="#241810" stroke-width="0.8" opacity="0.4"/>
  <!-- Foot/ankle area -->
  <path d="M20 4 Q18 12 16 24 Q14 32 18 36 Q24 34 40 32 Q60 30 76 32 Q82 34 84 36 Q86 28 82 18 Q78 8 68 4 Q50 0 32 2 Q24 2 20 4 Z" fill="url(#sandalLeatherL)" stroke="#0a0a0a" stroke-width="2"/>
  <!-- Cross-straps -->
  <path d="M22 8 Q40 18 78 10" stroke="#4a3420" stroke-width="3" fill="none" stroke-linecap="round"/>
  <path d="M22 8 Q40 18 78 10" stroke="#5a4428" stroke-width="1" fill="none" opacity="0.5"/>
  <path d="M26 18 Q46 26 76 20" stroke="#4a3420" stroke-width="3" fill="none" stroke-linecap="round"/>
  <path d="M26 18 Q46 26 76 20" stroke="#5a4428" stroke-width="1" fill="none" opacity="0.5"/>
  <!-- Diagonal cross strap -->
  <path d="M30 6 Q38 20 34 30" stroke="#4a3420" stroke-width="2.5" fill="none" stroke-linecap="round"/>
  <path d="M60 6 Q54 18 56 28" stroke="#4a3420" stroke-width="2.5" fill="none" stroke-linecap="round"/>
  <!-- Strap buckle/knot -->
  <circle cx="30" cy="6" r="2" fill="#3a2818" stroke="#0a0a0a" stroke-width="1"/>
  <circle cx="60" cy="6" r="2" fill="#3a2818" stroke="#0a0a0a" stroke-width="1"/>
  <!-- Worn leather texture -->
  <line x1="40" y1="12" x2="44" y2="14" stroke="#1a1008" stroke-width="0.5" opacity="0.3"/>
  <line x1="50" y1="14" x2="56" y2="16" stroke="#1a1008" stroke-width="0.5" opacity="0.3"/>
  <line x1="66" y1="24" x2="72" y2="26" stroke="#1a1008" stroke-width="0.5" opacity="0.3"/>
  <!-- Toes peek (austere) -->
  <path d="M82 26 Q86 28 88 32" stroke="#b8a888" stroke-width="1.5" fill="none" opacity="0.4"/>
  <!-- Shadow -->
  <path d="M14 30 Q12 36 14 42 Q20 38 30 36" fill="#0a0a0a" opacity="0.2"/>
  <!-- Dust/wear marks -->
  <circle cx="50" cy="38" r="3" fill="#3a2818" opacity="0.15"/>
  <circle cx="70" cy="40" r="4" fill="#3a2818" opacity="0.1"/>
</svg>
