<svg xmlns="http://www.w3.org/2000/svg" viewBox="0 0 56 144" width="56" height="144">
  <defs>
    <linearGradient id="gaiterGradR" x1="0" y1="0" x2="1" y2="0">
      <stop offset="0%" stop-color="#3a2818"/>
      <stop offset="60%" stop-color="#4a3828"/>
      <stop offset="100%" stop-color="#3a2818"/>
    </linearGradient>
    <linearGradient id="gaiterShadR" x1="1" y1="0" x2="0" y2="0">
      <stop offset="0%" stop-color="#000000" stop-opacity="0.2"/>
      <stop offset="100%" stop-color="#000000" stop-opacity="0"/>
    </linearGradient>
    <pattern id="leatherHatchR" width="4" height="4" patternUnits="userSpaceOnUse">
      <line x1="0" y1="0" x2="4" y2="4" stroke="#1a1210" stroke-width="0.4" opacity="0.12"/>
    </pattern>
  </defs>
  <!-- Gaiter/legging shape -->
  <path d="M8 2 Q28 0 48 2 Q50 4 50 10 L48 134 Q46 140 28 142 Q10 140 8 134 L6 10 Q6 4 8 2Z" fill="url(#gaiterGradR)" stroke="#0a0a0a" stroke-width="2"/>
  <!-- Leather texture -->
  <path d="M8 2 Q28 0 48 2 Q50 4 50 10 L48 134 Q46 140 28 142 Q10 140 8 134 L6 10 Q6 4 8 2Z" fill="url(#leatherHatchR)"/>
  <!-- Shadow side -->
  <path d="M50 4 L48 134 Q46 140 38 142 L40 2 Q46 2 50 4Z" fill="url(#gaiterShadR)"/>
  <!-- Top cuff band -->
  <path d="M6 4 Q28 0 50 4 Q50 10 28 8 Q6 10 6 4Z" fill="#2a1a10" stroke="#0a0a0a" stroke-width="1.5"/>
  <!-- Light catch -->
  <path d="M18 8 Q24 4 32 8 L30 60 Q24 56 20 60Z" fill="#4a3a28" opacity="0.08"/>
  <!-- Button-up side -->
  <circle cx="12" cy="16" r="2" fill="#7a6a30" stroke="#0a0a0a" stroke-width="0.8"/>
  <circle cx="12" cy="32" r="2" fill="#7a6a30" stroke="#0a0a0a" stroke-width="0.8"/>
  <circle cx="12" cy="48" r="2" fill="#7a6a30" stroke="#0a0a0a" stroke-width="0.8"/>
  <circle cx="12" cy="64" r="2" fill="#7a6a30" stroke="#0a0a0a" stroke-width="0.8"/>
  <circle cx="12" cy="80" r="2" fill="#7a6a30" stroke="#0a0a0a" stroke-width="0.8"/>
  <circle cx="12" cy="96" r="2" fill="#7a6a30" stroke="#0a0a0a" stroke-width="0.8"/>
  <circle cx="12" cy="112" r="2" fill="#7a6a30" stroke="#0a0a0a" stroke-width="0.8"/>
  <circle cx="12" cy="128" r="2" fill="#7a6a30" stroke="#0a0a0a" stroke-width="0.8"/>
  <!-- Button seam -->
  <line x1="12" y1="8" x2="12" y2="136" stroke="#1a1210" stroke-width="0.8" opacity="0.25"/>
  <!-- Scuff marks -->
  <ellipse cx="36" cy="118" rx="7" ry="4" fill="#4a3a28" opacity="0.18" transform="rotate(5 36 118)"/>
  <ellipse cx="26" cy="95" rx="5" ry="3" fill="#4a3a28" opacity="0.12"/>
  <ellipse cx="38" cy="55" rx="5" ry="3" fill="#1a1210" opacity="0.08"/>
  <!-- Creases -->
  <path d="M40 22 Q32 30 36 44" stroke="#1a1210" stroke-width="0.7" fill="none" opacity="0.2"/>
  <path d="M18 40 Q26 48 22 64" stroke="#1a1210" stroke-width="0.6" fill="none" opacity="0.16"/>
  <path d="M38 75 Q30 82 34 98" stroke="#1a1210" stroke-width="0.6" fill="none" opacity="0.16"/>
  <!-- Cross-hatching -->
  <line x1="44" y1="20" x2="48" y2="50" stroke="#1a1210" stroke-width="0.4" opacity="0.15"/>
  <line x1="44" y1="55" x2="48" y2="85" stroke="#1a1210" stroke-width="0.4" opacity="0.12"/>
  <line x1="44" y1="90" x2="48" y2="120" stroke="#1a1210" stroke-width="0.4" opacity="0.1"/>
  <!-- Bottom ankle -->
  <path d="M8 132 Q28 136 48 132" stroke="#1a1210" stroke-width="1" fill="none" opacity="0.22"/>
  <!-- Knee shine -->
  <ellipse cx="28" cy="28" rx="10" ry="6" fill="#4a3a28" opacity="0.08"/>
</svg>
